<svg width="524" height="517" viewBox="0 0 524 517" fill="none" xmlns="http://www.w3.org/2000/svg">
<path d="M9.144 415.016V413.848H1.8V415.128H7.752C7.15467 415.757 6.59467 416.445 6.072 417.192C5.56 417.939 5.10667 418.733 4.712 419.576C4.31733 420.408 3.992 421.283 3.736 422.2C3.49067 423.107 3.336 424.04 3.272 425H4.792C4.84533 424.115 4.99467 423.203 5.24 422.264C5.48533 421.325 5.8 420.413 6.184 419.528C6.57867 418.643 7.02667 417.811 7.528 417.032C8.02933 416.253 8.568 415.581 9.144 415.016ZM18.4106 415.048V413.848H12.8106L11.7546 419.736L12.9226 419.8C13.1893 419.48 13.4933 419.224 13.8346 419.032C14.1866 418.829 14.5866 418.728 15.0346 418.728C15.4186 418.728 15.7653 418.792 16.0746 418.92C16.3946 419.048 16.6666 419.229 16.8906 419.464C17.1146 419.688 17.2853 419.96 17.4026 420.28C17.5306 420.589 17.5946 420.931 17.5946 421.304C17.5946 421.752 17.5306 422.147 17.4026 422.488C17.2746 422.819 17.0986 423.096 16.8746 423.32C16.6613 423.544 16.4053 423.715 16.1066 423.832C15.8186 423.939 15.5146 423.992 15.1946 423.992C14.8533 423.992 14.5386 423.944 14.2506 423.848C13.9733 423.741 13.728 423.597 13.5146 423.416C13.312 423.224 13.1466 423.005 13.0186 422.76C12.9013 422.504 12.832 422.232 12.8106 421.944H11.4506C11.4613 422.456 11.5626 422.915 11.7546 423.32C11.9466 423.725 12.208 424.067 12.5386 424.344C12.8693 424.611 13.248 424.819 13.6746 424.968C14.112 425.107 14.576 425.176 15.0666 425.176C15.728 425.176 16.304 425.075 16.7946 424.872C17.296 424.659 17.712 424.376 18.0426 424.024C18.3733 423.672 18.6186 423.272 18.7786 422.824C18.9493 422.365 19.0346 421.896 19.0346 421.416C19.0346 420.765 18.9386 420.2 18.7466 419.72C18.5546 419.229 18.2933 418.824 17.9626 418.504C17.632 418.173 17.2426 417.928 16.7946 417.768C16.3466 417.608 15.872 417.528 15.3706 417.528C14.9866 417.528 14.5973 417.597 14.2026 417.736C13.8186 417.864 13.504 418.067 13.2586 418.344L13.2266 418.312L13.8346 415.048H18.4106ZM22.8932 419.416C22.8932 419.139 22.8932 418.835 22.8932 418.504C22.9039 418.163 22.9306 417.827 22.9733 417.496C23.0266 417.155 23.0959 416.824 23.1813 416.504C23.2773 416.184 23.4106 415.907 23.5813 415.672C23.7626 415.427 23.9866 415.229 24.2533 415.08C24.5199 414.931 24.8453 414.856 25.2293 414.856C25.6133 414.856 25.9386 414.931 26.2053 415.08C26.4719 415.229 26.6906 415.427 26.8613 415.672C27.0426 415.907 27.1759 416.184 27.2613 416.504C27.3573 416.824 27.4266 417.155 27.4693 417.496C27.5226 417.827 27.5493 418.163 27.5493 418.504C27.5599 418.835 27.5653 419.139 27.5653 419.416C27.5653 419.843 27.5493 420.323 27.5173 420.856C27.4959 421.379 27.4106 421.875 27.2613 422.344C27.1226 422.803 26.8933 423.192 26.5733 423.512C26.2533 423.832 25.8053 423.992 25.2293 423.992C24.6533 423.992 24.2053 423.832 23.8853 423.512C23.5653 423.192 23.3306 422.803 23.1813 422.344C23.0426 421.875 22.9573 421.379 22.9253 420.856C22.9039 420.323 22.8932 419.843 22.8932 419.416ZM21.4533 419.432C21.4533 419.848 21.4639 420.28 21.4853 420.728C21.5066 421.176 21.5599 421.613 21.6453 422.04C21.7306 422.467 21.8533 422.872 22.0133 423.256C22.1733 423.629 22.3919 423.96 22.6693 424.248C22.9466 424.536 23.2933 424.765 23.7093 424.936C24.1359 425.096 24.6426 425.176 25.2293 425.176C25.8266 425.176 26.3333 425.096 26.7493 424.936C27.1653 424.765 27.5119 424.536 27.7893 424.248C28.0666 423.96 28.2853 423.629 28.4453 423.256C28.6053 422.872 28.7279 422.467 28.8133 422.04C28.8986 421.613 28.9519 421.176 28.9733 420.728C28.9946 420.28 29.0052 419.848 29.0052 419.432C29.0052 419.016 28.9946 418.584 28.9733 418.136C28.9519 417.688 28.8986 417.251 28.8133 416.824C28.7279 416.397 28.6053 415.992 28.4453 415.608C28.2853 415.224 28.0666 414.888 27.7893 414.6C27.5119 414.312 27.1599 414.083 26.7333 413.912C26.3173 413.741 25.8159 413.656 25.2293 413.656C24.6426 413.656 24.1359 413.741 23.7093 413.912C23.2933 414.083 22.9466 414.312 22.6693 414.6C22.3919 414.888 22.1733 415.224 22.0133 415.608C21.8533 415.992 21.7306 416.397 21.6453 416.824C21.5599 417.251 21.5066 417.688 21.4853 418.136C21.4639 418.584 21.4533 419.016 21.4533 419.432ZM32.7839 419.416C32.7839 419.139 32.7839 418.835 32.7839 418.504C32.7945 418.163 32.8212 417.827 32.8639 417.496C32.9172 417.155 32.9865 416.824 33.0719 416.504C33.1679 416.184 33.3012 415.907 33.4719 415.672C33.6532 415.427 33.8772 415.229 34.1439 415.08C34.4105 414.931 34.7359 414.856 35.1199 414.856C35.5039 414.856 35.8292 414.931 36.0959 415.08C36.3625 415.229 36.5812 415.427 36.7519 415.672C36.9332 415.907 37.0665 416.184 37.1519 416.504C37.2479 416.824 37.3172 417.155 37.3599 417.496C37.4132 417.827 37.4399 418.163 37.4399 418.504C37.4505 418.835 37.4559 419.139 37.4559 419.416C37.4559 419.843 37.4399 420.323 37.4079 420.856C37.3865 421.379 37.3012 421.875 37.1519 422.344C37.0132 422.803 36.7839 423.192 36.4639 423.512C36.1439 423.832 35.6959 423.992 35.1199 423.992C34.5439 423.992 34.0959 423.832 33.7759 423.512C33.4559 423.192 33.2212 422.803 33.0719 422.344C32.9332 421.875 32.8479 421.379 32.8159 420.856C32.7945 420.323 32.7839 419.843 32.7839 419.416ZM31.3439 419.432C31.3439 419.848 31.3545 420.28 31.3759 420.728C31.3972 421.176 31.4505 421.613 31.5359 422.04C31.6212 422.467 31.7439 422.872 31.9039 423.256C32.0639 423.629 32.2825 423.96 32.5599 424.248C32.8372 424.536 33.1839 424.765 33.5999 424.936C34.0265 425.096 34.5332 425.176 35.1199 425.176C35.7172 425.176 36.2239 425.096 36.6399 424.936C37.0559 424.765 37.4025 424.536 37.6799 424.248C37.9572 423.96 38.1759 423.629 38.3359 423.256C38.4959 422.872 38.6185 422.467 38.7039 422.04C38.7892 421.613 38.8425 421.176 38.8639 420.728C38.8852 420.28 38.8959 419.848 38.8959 419.432C38.8959 419.016 38.8852 418.584 38.8639 418.136C38.8425 417.688 38.7892 417.251 38.7039 416.824C38.6185 416.397 38.4959 415.992 38.3359 415.608C38.1759 415.224 37.9572 414.888 37.6799 414.6C37.4025 414.312 37.0505 414.083 36.6239 413.912C36.2079 413.741 35.7065 413.656 35.1199 413.656C34.5332 413.656 34.0265 413.741 33.5999 413.912C33.1839 414.083 32.8372 414.312 32.5599 414.6C32.2825 414.888 32.0639 415.224 31.9039 415.608C31.7439 415.992 31.6212 416.397 31.5359 416.824C31.4505 417.251 31.3972 417.688 31.3759 418.136C31.3545 418.584 31.3439 419.016 31.3439 419.432ZM54.9436 414.408C53.9836 413.736 53.0183 413.4 52.0476 413.4C50.789 413.4 49.7596 413.832 48.9596 414.696C48.245 415.453 47.7596 416.488 47.5036 417.8H46.6396L46.2236 418.776H47.3916C47.381 418.851 47.3756 418.931 47.3756 419.016C47.3756 419.101 47.3756 419.192 47.3756 419.288C47.3756 419.341 47.3756 419.395 47.3756 419.448C47.3756 419.501 47.381 419.555 47.3916 419.608H46.6556L46.2236 420.584H47.4556C47.9036 423.688 49.4343 425.24 52.0476 425.24C52.9756 425.24 53.797 425.011 54.5116 424.552V422.872C54.0636 423.288 53.6956 423.571 53.4076 423.72C53.013 423.923 52.5596 424.024 52.0476 424.024C50.373 424.024 49.3596 422.877 49.0076 420.584H52.4956L52.9116 419.608H48.9276C48.917 419.555 48.9116 419.501 48.9116 419.448C48.9116 419.395 48.9116 419.336 48.9116 419.272C48.9116 419.197 48.9116 419.117 48.9116 419.032C48.9116 418.947 48.917 418.861 48.9276 418.776H53.1356L53.5676 417.8H49.0396C49.221 416.915 49.5196 416.2 49.9356 415.656C50.4583 414.973 51.1196 414.632 51.9196 414.632C52.6983 414.632 53.461 415 54.2076 415.736L54.9436 414.408Z" fill="white"/>
<path d="M68.9228 505.672H70.2828C70.2721 505.331 70.3041 504.995 70.3788 504.664C70.4641 504.323 70.5974 504.019 70.7788 503.752C70.9601 503.485 71.1894 503.272 71.4668 503.112C71.7548 502.941 72.0961 502.856 72.4908 502.856C72.7894 502.856 73.0721 502.904 73.3388 503C73.6054 503.096 73.8348 503.235 74.0268 503.416C74.2294 503.597 74.3894 503.816 74.5068 504.072C74.6241 504.317 74.6828 504.595 74.6828 504.904C74.6828 505.299 74.6188 505.645 74.4908 505.944C74.3734 506.243 74.1921 506.52 73.9468 506.776C73.7121 507.032 73.4134 507.288 73.0508 507.544C72.6881 507.789 72.2668 508.061 71.7868 508.36C71.3921 508.595 71.0134 508.845 70.6508 509.112C70.2881 509.379 69.9628 509.688 69.6748 510.04C69.3868 510.392 69.1468 510.808 68.9548 511.288C68.7734 511.757 68.6561 512.328 68.6028 513H76.0108V511.8H70.1868C70.2508 511.448 70.3841 511.139 70.5868 510.872C70.8001 510.595 71.0508 510.339 71.3388 510.104C71.6374 509.869 71.9628 509.651 72.3148 509.448C72.6668 509.235 73.0188 509.021 73.3708 508.808C73.7228 508.584 74.0641 508.349 74.3948 508.104C74.7254 507.859 75.0188 507.587 75.2748 507.288C75.5308 506.979 75.7334 506.632 75.8828 506.248C76.0428 505.864 76.1228 505.421 76.1228 504.92C76.1228 504.387 76.0268 503.917 75.8348 503.512C75.6534 503.107 75.4028 502.771 75.0828 502.504C74.7628 502.227 74.3841 502.019 73.9468 501.88C73.5201 501.731 73.0614 501.656 72.5708 501.656C71.9734 501.656 71.4401 501.757 70.9708 501.96C70.5014 502.163 70.1068 502.445 69.7868 502.808C69.4774 503.16 69.2481 503.581 69.0988 504.072C68.9494 504.563 68.8908 505.096 68.9228 505.672ZM80.2214 507.416C80.2214 507.139 80.2214 506.835 80.2214 506.504C80.232 506.163 80.2587 505.827 80.3014 505.496C80.3547 505.155 80.424 504.824 80.5094 504.504C80.6054 504.184 80.7387 503.907 80.9094 503.672C81.0907 503.427 81.3147 503.229 81.5814 503.08C81.848 502.931 82.1734 502.856 82.5574 502.856C82.9414 502.856 83.2667 502.931 83.5334 503.08C83.8 503.229 84.0187 503.427 84.1894 503.672C84.3707 503.907 84.504 504.184 84.5894 504.504C84.6854 504.824 84.7547 505.155 84.7974 505.496C84.8507 505.827 84.8774 506.163 84.8774 506.504C84.888 506.835 84.8934 507.139 84.8934 507.416C84.8934 507.843 84.8774 508.323 84.8454 508.856C84.824 509.379 84.7387 509.875 84.5894 510.344C84.4507 510.803 84.2214 511.192 83.9014 511.512C83.5814 511.832 83.1334 511.992 82.5574 511.992C81.9814 511.992 81.5334 511.832 81.2134 511.512C80.8934 511.192 80.6587 510.803 80.5094 510.344C80.3707 509.875 80.2854 509.379 80.2534 508.856C80.232 508.323 80.2214 507.843 80.2214 507.416ZM78.7814 507.432C78.7814 507.848 78.792 508.28 78.8134 508.728C78.8347 509.176 78.888 509.613 78.9734 510.04C79.0587 510.467 79.1814 510.872 79.3414 511.256C79.5014 511.629 79.72 511.96 79.9974 512.248C80.2747 512.536 80.6214 512.765 81.0374 512.936C81.464 513.096 81.9707 513.176 82.5574 513.176C83.1547 513.176 83.6614 513.096 84.0774 512.936C84.4934 512.765 84.84 512.536 85.1174 512.248C85.3947 511.96 85.6134 511.629 85.7734 511.256C85.9334 510.872 86.056 510.467 86.1414 510.04C86.2267 509.613 86.28 509.176 86.3014 508.728C86.3227 508.28 86.3334 507.848 86.3334 507.432C86.3334 507.016 86.3227 506.584 86.3014 506.136C86.28 505.688 86.2267 505.251 86.1414 504.824C86.056 504.397 85.9334 503.992 85.7734 503.608C85.6134 503.224 85.3947 502.888 85.1174 502.6C84.84 502.312 84.488 502.083 84.0614 501.912C83.6454 501.741 83.144 501.656 82.5574 501.656C81.9707 501.656 81.464 501.741 81.0374 501.912C80.6214 502.083 80.2747 502.312 79.9974 502.6C79.72 502.888 79.5014 503.224 79.3414 503.608C79.1814 503.992 79.0587 504.397 78.9734 504.824C78.888 505.251 78.8347 505.688 78.8134 506.136C78.792 506.584 78.7814 507.016 78.7814 507.432ZM93.696 513V501.656H92.656C92.5813 502.083 92.4427 502.435 92.24 502.712C92.0373 502.989 91.7867 503.208 91.488 503.368C91.2 503.528 90.8747 503.64 90.512 503.704C90.1493 503.757 89.776 503.784 89.392 503.784V504.872H92.336V513H93.696ZM104.515 504.552H105.875C105.789 503.613 105.469 502.899 104.915 502.408C104.36 501.907 103.613 501.656 102.675 501.656C101.864 501.656 101.192 501.827 100.659 502.168C100.125 502.509 99.6986 502.963 99.3786 503.528C99.0586 504.093 98.8293 504.744 98.6906 505.48C98.5626 506.205 98.4986 506.957 98.4986 507.736C98.4986 508.333 98.5413 508.952 98.6266 509.592C98.7226 510.232 98.9093 510.819 99.1866 511.352C99.464 511.885 99.8586 512.323 100.371 512.664C100.883 513.005 101.56 513.176 102.403 513.176C103.117 513.176 103.715 513.059 104.195 512.824C104.685 512.579 105.075 512.275 105.363 511.912C105.661 511.539 105.875 511.128 106.003 510.68C106.131 510.232 106.195 509.8 106.195 509.384C106.195 508.861 106.115 508.376 105.955 507.928C105.795 507.48 105.565 507.091 105.267 506.76C104.979 506.429 104.616 506.173 104.179 505.992C103.752 505.8 103.267 505.704 102.723 505.704C102.104 505.704 101.555 505.821 101.075 506.056C100.605 506.291 100.211 506.669 99.8906 507.192L99.8586 507.16C99.8693 506.723 99.912 506.253 99.9866 505.752C100.061 505.251 100.195 504.787 100.387 504.36C100.589 503.923 100.867 503.565 101.219 503.288C101.571 503 102.035 502.856 102.611 502.856C103.155 502.856 103.592 503.011 103.923 503.32C104.253 503.629 104.451 504.04 104.515 504.552ZM102.467 506.904C102.851 506.904 103.187 506.973 103.475 507.112C103.763 507.251 104.003 507.437 104.195 507.672C104.387 507.896 104.525 508.168 104.611 508.488C104.707 508.797 104.755 509.128 104.755 509.48C104.755 509.811 104.701 510.131 104.595 510.44C104.499 510.739 104.355 511.005 104.163 511.24C103.971 511.475 103.731 511.661 103.443 511.8C103.165 511.928 102.84 511.992 102.467 511.992C102.093 511.992 101.757 511.928 101.459 511.8C101.171 511.661 100.925 511.48 100.723 511.256C100.531 511.032 100.381 510.765 100.275 510.456C100.168 510.147 100.115 509.816 100.115 509.464C100.115 509.112 100.163 508.781 100.259 508.472C100.365 508.152 100.52 507.88 100.723 507.656C100.925 507.421 101.171 507.24 101.459 507.112C101.747 506.973 102.083 506.904 102.467 506.904Z" fill="white"/>
<path d="M155.923 505.672H157.283C157.272 505.331 157.304 504.995 157.379 504.664C157.464 504.323 157.597 504.019 157.779 503.752C157.96 503.485 158.189 503.272 158.467 503.112C158.755 502.941 159.096 502.856 159.491 502.856C159.789 502.856 160.072 502.904 160.339 503C160.605 503.096 160.835 503.235 161.027 503.416C161.229 503.597 161.389 503.816 161.507 504.072C161.624 504.317 161.683 504.595 161.683 504.904C161.683 505.299 161.619 505.645 161.491 505.944C161.373 506.243 161.192 506.52 160.947 506.776C160.712 507.032 160.413 507.288 160.051 507.544C159.688 507.789 159.267 508.061 158.787 508.36C158.392 508.595 158.013 508.845 157.651 509.112C157.288 509.379 156.963 509.688 156.675 510.04C156.387 510.392 156.147 510.808 155.955 511.288C155.773 511.757 155.656 512.328 155.603 513H163.011V511.8H157.187C157.251 511.448 157.384 511.139 157.587 510.872C157.8 510.595 158.051 510.339 158.339 510.104C158.637 509.869 158.963 509.651 159.315 509.448C159.667 509.235 160.019 509.021 160.371 508.808C160.723 508.584 161.064 508.349 161.395 508.104C161.725 507.859 162.019 507.587 162.275 507.288C162.531 506.979 162.733 506.632 162.883 506.248C163.043 505.864 163.123 505.421 163.123 504.92C163.123 504.387 163.027 503.917 162.835 503.512C162.653 503.107 162.403 502.771 162.083 502.504C161.763 502.227 161.384 502.019 160.947 501.88C160.52 501.731 160.061 501.656 159.571 501.656C158.973 501.656 158.44 501.757 157.971 501.96C157.501 502.163 157.107 502.445 156.787 502.808C156.477 503.16 156.248 503.581 156.099 504.072C155.949 504.563 155.891 505.096 155.923 505.672ZM167.221 507.416C167.221 507.139 167.221 506.835 167.221 506.504C167.232 506.163 167.259 505.827 167.301 505.496C167.355 505.155 167.424 504.824 167.509 504.504C167.605 504.184 167.739 503.907 167.909 503.672C168.091 503.427 168.315 503.229 168.581 503.08C168.848 502.931 169.173 502.856 169.557 502.856C169.941 502.856 170.267 502.931 170.533 503.08C170.8 503.229 171.019 503.427 171.189 503.672C171.371 503.907 171.504 504.184 171.589 504.504C171.685 504.824 171.755 505.155 171.797 505.496C171.851 505.827 171.877 506.163 171.877 506.504C171.888 506.835 171.893 507.139 171.893 507.416C171.893 507.843 171.877 508.323 171.845 508.856C171.824 509.379 171.739 509.875 171.589 510.344C171.451 510.803 171.221 511.192 170.901 511.512C170.581 511.832 170.133 511.992 169.557 511.992C168.981 511.992 168.533 511.832 168.213 511.512C167.893 511.192 167.659 510.803 167.509 510.344C167.371 509.875 167.285 509.379 167.253 508.856C167.232 508.323 167.221 507.843 167.221 507.416ZM165.781 507.432C165.781 507.848 165.792 508.28 165.813 508.728C165.835 509.176 165.888 509.613 165.973 510.04C166.059 510.467 166.181 510.872 166.341 511.256C166.501 511.629 166.72 511.96 166.997 512.248C167.275 512.536 167.621 512.765 168.037 512.936C168.464 513.096 168.971 513.176 169.557 513.176C170.155 513.176 170.661 513.096 171.077 512.936C171.493 512.765 171.84 512.536 172.117 512.248C172.395 511.96 172.613 511.629 172.773 511.256C172.933 510.872 173.056 510.467 173.141 510.04C173.227 509.613 173.28 509.176 173.301 508.728C173.323 508.28 173.333 507.848 173.333 507.432C173.333 507.016 173.323 506.584 173.301 506.136C173.28 505.688 173.227 505.251 173.141 504.824C173.056 504.397 172.933 503.992 172.773 503.608C172.613 503.224 172.395 502.888 172.117 502.6C171.84 502.312 171.488 502.083 171.061 501.912C170.645 501.741 170.144 501.656 169.557 501.656C168.971 501.656 168.464 501.741 168.037 501.912C167.621 502.083 167.275 502.312 166.997 502.6C166.72 502.888 166.501 503.224 166.341 503.608C166.181 503.992 166.059 504.397 165.973 504.824C165.888 505.251 165.835 505.688 165.813 506.136C165.792 506.584 165.781 507.016 165.781 507.432ZM180.696 513V501.656H179.656C179.581 502.083 179.443 502.435 179.24 502.712C179.037 502.989 178.787 503.208 178.488 503.368C178.2 503.528 177.875 503.64 177.512 503.704C177.149 503.757 176.776 503.784 176.392 503.784V504.872H179.336V513H180.696ZM193.035 503.016V501.848H185.691V503.128H191.643C191.045 503.757 190.485 504.445 189.963 505.192C189.451 505.939 188.997 506.733 188.603 507.576C188.208 508.408 187.883 509.283 187.627 510.2C187.381 511.107 187.227 512.04 187.163 513H188.683C188.736 512.115 188.885 511.203 189.131 510.264C189.376 509.325 189.691 508.413 190.075 507.528C190.469 506.643 190.917 505.811 191.419 505.032C191.92 504.253 192.459 503.581 193.035 503.016Z" fill="white"/>
<path d="M242.923 505.672H244.283C244.272 505.331 244.304 504.995 244.379 504.664C244.464 504.323 244.597 504.019 244.779 503.752C244.96 503.485 245.189 503.272 245.467 503.112C245.755 502.941 246.096 502.856 246.491 502.856C246.789 502.856 247.072 502.904 247.339 503C247.605 503.096 247.835 503.235 248.027 503.416C248.229 503.597 248.389 503.816 248.507 504.072C248.624 504.317 248.683 504.595 248.683 504.904C248.683 505.299 248.619 505.645 248.491 505.944C248.373 506.243 248.192 506.52 247.947 506.776C247.712 507.032 247.413 507.288 247.051 507.544C246.688 507.789 246.267 508.061 245.787 508.36C245.392 508.595 245.013 508.845 244.651 509.112C244.288 509.379 243.963 509.688 243.675 510.04C243.387 510.392 243.147 510.808 242.955 511.288C242.773 511.757 242.656 512.328 242.603 513H250.011V511.8H244.187C244.251 511.448 244.384 511.139 244.587 510.872C244.8 510.595 245.051 510.339 245.339 510.104C245.637 509.869 245.963 509.651 246.315 509.448C246.667 509.235 247.019 509.021 247.371 508.808C247.723 508.584 248.064 508.349 248.395 508.104C248.725 507.859 249.019 507.587 249.275 507.288C249.531 506.979 249.733 506.632 249.883 506.248C250.043 505.864 250.123 505.421 250.123 504.92C250.123 504.387 250.027 503.917 249.835 503.512C249.653 503.107 249.403 502.771 249.083 502.504C248.763 502.227 248.384 502.019 247.947 501.88C247.52 501.731 247.061 501.656 246.571 501.656C245.973 501.656 245.44 501.757 244.971 501.96C244.501 502.163 244.107 502.445 243.787 502.808C243.477 503.16 243.248 503.581 243.099 504.072C242.949 504.563 242.891 505.096 242.923 505.672ZM254.221 507.416C254.221 507.139 254.221 506.835 254.221 506.504C254.232 506.163 254.259 505.827 254.301 505.496C254.355 505.155 254.424 504.824 254.509 504.504C254.605 504.184 254.739 503.907 254.909 503.672C255.091 503.427 255.315 503.229 255.581 503.08C255.848 502.931 256.173 502.856 256.557 502.856C256.941 502.856 257.267 502.931 257.533 503.08C257.8 503.229 258.019 503.427 258.189 503.672C258.371 503.907 258.504 504.184 258.589 504.504C258.685 504.824 258.755 505.155 258.797 505.496C258.851 505.827 258.877 506.163 258.877 506.504C258.888 506.835 258.893 507.139 258.893 507.416C258.893 507.843 258.877 508.323 258.845 508.856C258.824 509.379 258.739 509.875 258.589 510.344C258.451 510.803 258.221 511.192 257.901 511.512C257.581 511.832 257.133 511.992 256.557 511.992C255.981 511.992 255.533 511.832 255.213 511.512C254.893 511.192 254.659 510.803 254.509 510.344C254.371 509.875 254.285 509.379 254.253 508.856C254.232 508.323 254.221 507.843 254.221 507.416ZM252.781 507.432C252.781 507.848 252.792 508.28 252.813 508.728C252.835 509.176 252.888 509.613 252.973 510.04C253.059 510.467 253.181 510.872 253.341 511.256C253.501 511.629 253.72 511.96 253.997 512.248C254.275 512.536 254.621 512.765 255.037 512.936C255.464 513.096 255.971 513.176 256.557 513.176C257.155 513.176 257.661 513.096 258.077 512.936C258.493 512.765 258.84 512.536 259.117 512.248C259.395 511.96 259.613 511.629 259.773 511.256C259.933 510.872 260.056 510.467 260.141 510.04C260.227 509.613 260.28 509.176 260.301 508.728C260.323 508.28 260.333 507.848 260.333 507.432C260.333 507.016 260.323 506.584 260.301 506.136C260.28 505.688 260.227 505.251 260.141 504.824C260.056 504.397 259.933 503.992 259.773 503.608C259.613 503.224 259.395 502.888 259.117 502.6C258.84 502.312 258.488 502.083 258.061 501.912C257.645 501.741 257.144 501.656 256.557 501.656C255.971 501.656 255.464 501.741 255.037 501.912C254.621 502.083 254.275 502.312 253.997 502.6C253.72 502.888 253.501 503.224 253.341 503.608C253.181 503.992 253.059 504.397 252.973 504.824C252.888 505.251 252.835 505.688 252.813 506.136C252.792 506.584 252.781 507.016 252.781 507.432ZM267.696 513V501.656H266.656C266.581 502.083 266.443 502.435 266.24 502.712C266.037 502.989 265.787 503.208 265.488 503.368C265.2 503.528 264.875 503.64 264.512 503.704C264.149 503.757 263.776 503.784 263.392 503.784V504.872H266.336V513H267.696ZM274.371 504.6C274.371 504.312 274.424 504.061 274.531 503.848C274.637 503.635 274.776 503.453 274.947 503.304C275.128 503.155 275.341 503.043 275.587 502.968C275.832 502.893 276.088 502.856 276.355 502.856C276.909 502.856 277.363 503.005 277.715 503.304C278.077 503.592 278.259 504.024 278.259 504.6C278.259 505.176 278.083 505.624 277.731 505.944C277.379 506.264 276.931 506.424 276.387 506.424C276.109 506.424 275.848 506.387 275.603 506.312C275.357 506.237 275.144 506.125 274.963 505.976C274.781 505.827 274.637 505.64 274.531 505.416C274.424 505.181 274.371 504.909 274.371 504.6ZM272.931 504.552C272.931 505.064 273.075 505.539 273.363 505.976C273.651 506.403 274.035 506.712 274.515 506.904C273.875 507.128 273.384 507.491 273.043 507.992C272.701 508.483 272.531 509.064 272.531 509.736C272.531 510.312 272.627 510.819 272.819 511.256C273.021 511.683 273.293 512.04 273.635 512.328C273.987 512.616 274.397 512.829 274.867 512.968C275.336 513.107 275.843 513.176 276.387 513.176C276.909 513.176 277.4 513.101 277.859 512.952C278.317 512.803 278.712 512.584 279.043 512.296C279.384 511.997 279.651 511.635 279.843 511.208C280.045 510.781 280.147 510.291 280.147 509.736C280.147 509.032 279.981 508.44 279.651 507.96C279.32 507.469 278.813 507.117 278.131 506.904C278.611 506.691 278.989 506.376 279.267 505.96C279.555 505.533 279.699 505.064 279.699 504.552C279.699 504.189 279.635 503.837 279.507 503.496C279.379 503.144 279.176 502.835 278.899 502.568C278.632 502.291 278.28 502.072 277.843 501.912C277.405 501.741 276.877 501.656 276.259 501.656C275.821 501.656 275.4 501.72 274.995 501.848C274.6 501.976 274.248 502.163 273.939 502.408C273.629 502.653 273.384 502.957 273.203 503.32C273.021 503.672 272.931 504.083 272.931 504.552ZM273.971 509.8C273.971 509.469 274.029 509.171 274.147 508.904C274.275 508.637 274.445 508.408 274.659 508.216C274.883 508.024 275.139 507.88 275.427 507.784C275.725 507.677 276.04 507.624 276.371 507.624C276.691 507.624 276.989 507.683 277.267 507.8C277.555 507.907 277.805 508.056 278.019 508.248C278.232 508.44 278.397 508.669 278.515 508.936C278.643 509.192 278.707 509.475 278.707 509.784C278.707 510.104 278.648 510.397 278.531 510.664C278.424 510.931 278.264 511.165 278.051 511.368C277.848 511.56 277.603 511.715 277.315 511.832C277.037 511.939 276.728 511.992 276.387 511.992C275.683 511.992 275.101 511.8 274.643 511.416C274.195 511.021 273.971 510.483 273.971 509.8Z" fill="white"/>
<path d="M329.923 505.672H331.283C331.272 505.331 331.304 504.995 331.379 504.664C331.464 504.323 331.597 504.019 331.779 503.752C331.96 503.485 332.189 503.272 332.467 503.112C332.755 502.941 333.096 502.856 333.491 502.856C333.789 502.856 334.072 502.904 334.339 503C334.605 503.096 334.835 503.235 335.027 503.416C335.229 503.597 335.389 503.816 335.507 504.072C335.624 504.317 335.683 504.595 335.683 504.904C335.683 505.299 335.619 505.645 335.491 505.944C335.373 506.243 335.192 506.52 334.947 506.776C334.712 507.032 334.413 507.288 334.051 507.544C333.688 507.789 333.267 508.061 332.787 508.36C332.392 508.595 332.013 508.845 331.651 509.112C331.288 509.379 330.963 509.688 330.675 510.04C330.387 510.392 330.147 510.808 329.955 511.288C329.773 511.757 329.656 512.328 329.603 513H337.011V511.8H331.187C331.251 511.448 331.384 511.139 331.587 510.872C331.8 510.595 332.051 510.339 332.339 510.104C332.637 509.869 332.963 509.651 333.315 509.448C333.667 509.235 334.019 509.021 334.371 508.808C334.723 508.584 335.064 508.349 335.395 508.104C335.725 507.859 336.019 507.587 336.275 507.288C336.531 506.979 336.733 506.632 336.883 506.248C337.043 505.864 337.123 505.421 337.123 504.92C337.123 504.387 337.027 503.917 336.835 503.512C336.653 503.107 336.403 502.771 336.083 502.504C335.763 502.227 335.384 502.019 334.947 501.88C334.52 501.731 334.061 501.656 333.571 501.656C332.973 501.656 332.44 501.757 331.971 501.96C331.501 502.163 331.107 502.445 330.787 502.808C330.477 503.16 330.248 503.581 330.099 504.072C329.949 504.563 329.891 505.096 329.923 505.672ZM341.221 507.416C341.221 507.139 341.221 506.835 341.221 506.504C341.232 506.163 341.259 505.827 341.301 505.496C341.355 505.155 341.424 504.824 341.509 504.504C341.605 504.184 341.739 503.907 341.909 503.672C342.091 503.427 342.315 503.229 342.581 503.08C342.848 502.931 343.173 502.856 343.557 502.856C343.941 502.856 344.267 502.931 344.533 503.08C344.8 503.229 345.019 503.427 345.189 503.672C345.371 503.907 345.504 504.184 345.589 504.504C345.685 504.824 345.755 505.155 345.797 505.496C345.851 505.827 345.877 506.163 345.877 506.504C345.888 506.835 345.893 507.139 345.893 507.416C345.893 507.843 345.877 508.323 345.845 508.856C345.824 509.379 345.739 509.875 345.589 510.344C345.451 510.803 345.221 511.192 344.901 511.512C344.581 511.832 344.133 511.992 343.557 511.992C342.981 511.992 342.533 511.832 342.213 511.512C341.893 511.192 341.659 510.803 341.509 510.344C341.371 509.875 341.285 509.379 341.253 508.856C341.232 508.323 341.221 507.843 341.221 507.416ZM339.781 507.432C339.781 507.848 339.792 508.28 339.813 508.728C339.835 509.176 339.888 509.613 339.973 510.04C340.059 510.467 340.181 510.872 340.341 511.256C340.501 511.629 340.72 511.96 340.997 512.248C341.275 512.536 341.621 512.765 342.037 512.936C342.464 513.096 342.971 513.176 343.557 513.176C344.155 513.176 344.661 513.096 345.077 512.936C345.493 512.765 345.84 512.536 346.117 512.248C346.395 511.96 346.613 511.629 346.773 511.256C346.933 510.872 347.056 510.467 347.141 510.04C347.227 509.613 347.28 509.176 347.301 508.728C347.323 508.28 347.333 507.848 347.333 507.432C347.333 507.016 347.323 506.584 347.301 506.136C347.28 505.688 347.227 505.251 347.141 504.824C347.056 504.397 346.933 503.992 346.773 503.608C346.613 503.224 346.395 502.888 346.117 502.6C345.84 502.312 345.488 502.083 345.061 501.912C344.645 501.741 344.144 501.656 343.557 501.656C342.971 501.656 342.464 501.741 342.037 501.912C341.621 502.083 341.275 502.312 340.997 502.6C340.72 502.888 340.501 503.224 340.341 503.608C340.181 503.992 340.059 504.397 339.973 504.824C339.888 505.251 339.835 505.688 339.813 506.136C339.792 506.584 339.781 507.016 339.781 507.432ZM354.696 513V501.656H353.656C353.581 502.083 353.443 502.435 353.24 502.712C353.037 502.989 352.787 503.208 352.488 503.368C352.2 503.528 351.875 503.64 351.512 503.704C351.149 503.757 350.776 503.784 350.392 503.784V504.872H353.336V513H354.696ZM361.035 510.264H359.675C359.76 511.245 360.117 511.976 360.747 512.456C361.376 512.936 362.165 513.176 363.115 513.176C364.491 513.176 365.488 512.653 366.107 511.608C366.736 510.552 367.051 509.043 367.051 507.08C367.051 506.003 366.944 505.117 366.731 504.424C366.528 503.72 366.251 503.165 365.899 502.76C365.547 502.355 365.136 502.072 364.667 501.912C364.197 501.741 363.696 501.656 363.163 501.656C362.619 501.656 362.117 501.747 361.659 501.928C361.2 502.109 360.805 502.365 360.475 502.696C360.144 503.016 359.888 503.405 359.707 503.864C359.525 504.312 359.435 504.808 359.435 505.352C359.435 505.907 359.509 506.419 359.659 506.888C359.819 507.357 360.048 507.757 360.347 508.088C360.656 508.419 361.035 508.68 361.483 508.872C361.931 509.053 362.443 509.144 363.019 509.144C363.573 509.144 364.085 509.005 364.555 508.728C365.024 508.44 365.387 508.056 365.643 507.576L365.675 507.608C365.632 509.091 365.403 510.195 364.987 510.92C364.571 511.635 363.947 511.992 363.115 511.992C362.571 511.992 362.101 511.843 361.707 511.544C361.312 511.245 361.088 510.819 361.035 510.264ZM365.435 505.448C365.435 505.779 365.381 506.099 365.275 506.408C365.168 506.707 365.013 506.973 364.811 507.208C364.608 507.432 364.363 507.613 364.075 507.752C363.787 507.88 363.467 507.944 363.115 507.944C362.784 507.944 362.48 507.88 362.203 507.752C361.936 507.613 361.701 507.432 361.499 507.208C361.307 506.984 361.152 506.728 361.035 506.44C360.928 506.152 360.875 505.853 360.875 505.544C360.875 505.192 360.912 504.856 360.987 504.536C361.072 504.216 361.2 503.933 361.371 503.688C361.552 503.432 361.781 503.229 362.059 503.08C362.347 502.931 362.693 502.856 363.099 502.856C363.483 502.856 363.819 502.925 364.107 503.064C364.395 503.203 364.635 503.395 364.827 503.64C365.029 503.875 365.179 504.147 365.275 504.456C365.381 504.765 365.435 505.096 365.435 505.448Z" fill="white"/>
<path d="M416.923 505.672H418.283C418.272 505.331 418.304 504.995 418.379 504.664C418.464 504.323 418.597 504.019 418.779 503.752C418.96 503.485 419.189 503.272 419.467 503.112C419.755 502.941 420.096 502.856 420.491 502.856C420.789 502.856 421.072 502.904 421.339 503C421.605 503.096 421.835 503.235 422.027 503.416C422.229 503.597 422.389 503.816 422.507 504.072C422.624 504.317 422.683 504.595 422.683 504.904C422.683 505.299 422.619 505.645 422.491 505.944C422.373 506.243 422.192 506.52 421.947 506.776C421.712 507.032 421.413 507.288 421.051 507.544C420.688 507.789 420.267 508.061 419.787 508.36C419.392 508.595 419.013 508.845 418.651 509.112C418.288 509.379 417.963 509.688 417.675 510.04C417.387 510.392 417.147 510.808 416.955 511.288C416.773 511.757 416.656 512.328 416.603 513H424.011V511.8H418.187C418.251 511.448 418.384 511.139 418.587 510.872C418.8 510.595 419.051 510.339 419.339 510.104C419.637 509.869 419.963 509.651 420.315 509.448C420.667 509.235 421.019 509.021 421.371 508.808C421.723 508.584 422.064 508.349 422.395 508.104C422.725 507.859 423.019 507.587 423.275 507.288C423.531 506.979 423.733 506.632 423.883 506.248C424.043 505.864 424.123 505.421 424.123 504.92C424.123 504.387 424.027 503.917 423.835 503.512C423.653 503.107 423.403 502.771 423.083 502.504C422.763 502.227 422.384 502.019 421.947 501.88C421.52 501.731 421.061 501.656 420.571 501.656C419.973 501.656 419.44 501.757 418.971 501.96C418.501 502.163 418.107 502.445 417.787 502.808C417.477 503.16 417.248 503.581 417.099 504.072C416.949 504.563 416.891 505.096 416.923 505.672ZM428.221 507.416C428.221 507.139 428.221 506.835 428.221 506.504C428.232 506.163 428.259 505.827 428.301 505.496C428.355 505.155 428.424 504.824 428.509 504.504C428.605 504.184 428.739 503.907 428.909 503.672C429.091 503.427 429.315 503.229 429.581 503.08C429.848 502.931 430.173 502.856 430.557 502.856C430.941 502.856 431.267 502.931 431.533 503.08C431.8 503.229 432.019 503.427 432.189 503.672C432.371 503.907 432.504 504.184 432.589 504.504C432.685 504.824 432.755 505.155 432.797 505.496C432.851 505.827 432.877 506.163 432.877 506.504C432.888 506.835 432.893 507.139 432.893 507.416C432.893 507.843 432.877 508.323 432.845 508.856C432.824 509.379 432.739 509.875 432.589 510.344C432.451 510.803 432.221 511.192 431.901 511.512C431.581 511.832 431.133 511.992 430.557 511.992C429.981 511.992 429.533 511.832 429.213 511.512C428.893 511.192 428.659 510.803 428.509 510.344C428.371 509.875 428.285 509.379 428.253 508.856C428.232 508.323 428.221 507.843 428.221 507.416ZM426.781 507.432C426.781 507.848 426.792 508.28 426.813 508.728C426.835 509.176 426.888 509.613 426.973 510.04C427.059 510.467 427.181 510.872 427.341 511.256C427.501 511.629 427.72 511.96 427.997 512.248C428.275 512.536 428.621 512.765 429.037 512.936C429.464 513.096 429.971 513.176 430.557 513.176C431.155 513.176 431.661 513.096 432.077 512.936C432.493 512.765 432.84 512.536 433.117 512.248C433.395 511.96 433.613 511.629 433.773 511.256C433.933 510.872 434.056 510.467 434.141 510.04C434.227 509.613 434.28 509.176 434.301 508.728C434.323 508.28 434.333 507.848 434.333 507.432C434.333 507.016 434.323 506.584 434.301 506.136C434.28 505.688 434.227 505.251 434.141 504.824C434.056 504.397 433.933 503.992 433.773 503.608C433.613 503.224 433.395 502.888 433.117 502.6C432.84 502.312 432.488 502.083 432.061 501.912C431.645 501.741 431.144 501.656 430.557 501.656C429.971 501.656 429.464 501.741 429.037 501.912C428.621 502.083 428.275 502.312 427.997 502.6C427.72 502.888 427.501 503.224 427.341 503.608C427.181 503.992 427.059 504.397 426.973 504.824C426.888 505.251 426.835 505.688 426.813 506.136C426.792 506.584 426.781 507.016 426.781 507.432ZM436.704 505.672H438.064C438.053 505.331 438.085 504.995 438.16 504.664C438.245 504.323 438.379 504.019 438.56 503.752C438.741 503.485 438.971 503.272 439.248 503.112C439.536 502.941 439.877 502.856 440.272 502.856C440.571 502.856 440.853 502.904 441.12 503C441.387 503.096 441.616 503.235 441.808 503.416C442.011 503.597 442.171 503.816 442.288 504.072C442.405 504.317 442.464 504.595 442.464 504.904C442.464 505.299 442.4 505.645 442.272 505.944C442.155 506.243 441.973 506.52 441.728 506.776C441.493 507.032 441.195 507.288 440.832 507.544C440.469 507.789 440.048 508.061 439.568 508.36C439.173 508.595 438.795 508.845 438.432 509.112C438.069 509.379 437.744 509.688 437.456 510.04C437.168 510.392 436.928 510.808 436.736 511.288C436.555 511.757 436.437 512.328 436.384 513H443.792V511.8H437.968C438.032 511.448 438.165 511.139 438.368 510.872C438.581 510.595 438.832 510.339 439.12 510.104C439.419 509.869 439.744 509.651 440.096 509.448C440.448 509.235 440.8 509.021 441.152 508.808C441.504 508.584 441.845 508.349 442.176 508.104C442.507 507.859 442.8 507.587 443.056 507.288C443.312 506.979 443.515 506.632 443.664 506.248C443.824 505.864 443.904 505.421 443.904 504.92C443.904 504.387 443.808 503.917 443.616 503.512C443.435 503.107 443.184 502.771 442.864 502.504C442.544 502.227 442.165 502.019 441.728 501.88C441.301 501.731 440.843 501.656 440.352 501.656C439.755 501.656 439.221 501.757 438.752 501.96C438.283 502.163 437.888 502.445 437.568 502.808C437.259 503.16 437.029 503.581 436.88 504.072C436.731 504.563 436.672 505.096 436.704 505.672ZM448.003 507.416C448.003 507.139 448.003 506.835 448.003 506.504C448.013 506.163 448.04 505.827 448.083 505.496C448.136 505.155 448.205 504.824 448.291 504.504C448.387 504.184 448.52 503.907 448.691 503.672C448.872 503.427 449.096 503.229 449.363 503.08C449.629 502.931 449.955 502.856 450.339 502.856C450.723 502.856 451.048 502.931 451.315 503.08C451.581 503.229 451.8 503.427 451.971 503.672C452.152 503.907 452.285 504.184 452.371 504.504C452.467 504.824 452.536 505.155 452.579 505.496C452.632 505.827 452.659 506.163 452.659 506.504C452.669 506.835 452.675 507.139 452.675 507.416C452.675 507.843 452.659 508.323 452.627 508.856C452.605 509.379 452.52 509.875 452.371 510.344C452.232 510.803 452.003 511.192 451.683 511.512C451.363 511.832 450.915 511.992 450.339 511.992C449.763 511.992 449.315 511.832 448.995 511.512C448.675 511.192 448.44 510.803 448.291 510.344C448.152 509.875 448.067 509.379 448.035 508.856C448.013 508.323 448.003 507.843 448.003 507.416ZM446.563 507.432C446.563 507.848 446.573 508.28 446.595 508.728C446.616 509.176 446.669 509.613 446.755 510.04C446.84 510.467 446.963 510.872 447.123 511.256C447.283 511.629 447.501 511.96 447.779 512.248C448.056 512.536 448.403 512.765 448.819 512.936C449.245 513.096 449.752 513.176 450.339 513.176C450.936 513.176 451.443 513.096 451.859 512.936C452.275 512.765 452.621 512.536 452.899 512.248C453.176 511.96 453.395 511.629 453.555 511.256C453.715 510.872 453.837 510.467 453.923 510.04C454.008 509.613 454.061 509.176 454.083 508.728C454.104 508.28 454.115 507.848 454.115 507.432C454.115 507.016 454.104 506.584 454.083 506.136C454.061 505.688 454.008 505.251 453.923 504.824C453.837 504.397 453.715 503.992 453.555 503.608C453.395 503.224 453.176 502.888 452.899 502.6C452.621 502.312 452.269 502.083 451.843 501.912C451.427 501.741 450.925 501.656 450.339 501.656C449.752 501.656 449.245 501.741 448.819 501.912C448.403 502.083 448.056 502.312 447.779 502.6C447.501 502.888 447.283 503.224 447.123 503.608C446.963 503.992 446.84 504.397 446.755 504.824C446.669 505.251 446.616 505.688 446.595 506.136C446.573 506.584 446.563 507.016 446.563 507.432Z" fill="white"/>
<path d="M6.696 292V280.656H5.656C5.58133 281.083 5.44267 281.435 5.24 281.712C5.03733 281.989 4.78667 282.208 4.488 282.368C4.2 282.528 3.87467 282.64 3.512 282.704C3.14933 282.757 2.776 282.784 2.392 282.784V283.872H5.336V292H6.696ZM13.0026 286.416C13.0026 286.139 13.0026 285.835 13.0026 285.504C13.0133 285.163 13.04 284.827 13.0826 284.496C13.136 284.155 13.2053 283.824 13.2906 283.504C13.3866 283.184 13.52 282.907 13.6906 282.672C13.872 282.427 14.096 282.229 14.3626 282.08C14.6293 281.931 14.9546 281.856 15.3386 281.856C15.7226 281.856 16.048 281.931 16.3146 282.08C16.5813 282.229 16.8 282.427 16.9706 282.672C17.152 282.907 17.2853 283.184 17.3706 283.504C17.4666 283.824 17.536 284.155 17.5786 284.496C17.632 284.827 17.6586 285.163 17.6586 285.504C17.6693 285.835 17.6746 286.139 17.6746 286.416C17.6746 286.843 17.6586 287.323 17.6266 287.856C17.6053 288.379 17.52 288.875 17.3706 289.344C17.232 289.803 17.0026 290.192 16.6826 290.512C16.3626 290.832 15.9146 290.992 15.3386 290.992C14.7626 290.992 14.3146 290.832 13.9946 290.512C13.6746 290.192 13.44 289.803 13.2906 289.344C13.152 288.875 13.0666 288.379 13.0346 287.856C13.0133 287.323 13.0026 286.843 13.0026 286.416ZM11.5626 286.432C11.5626 286.848 11.5733 287.28 11.5946 287.728C11.616 288.176 11.6693 288.613 11.7546 289.04C11.84 289.467 11.9626 289.872 12.1226 290.256C12.2826 290.629 12.5013 290.96 12.7786 291.248C13.056 291.536 13.4026 291.765 13.8186 291.936C14.2453 292.096 14.752 292.176 15.3386 292.176C15.936 292.176 16.4426 292.096 16.8586 291.936C17.2746 291.765 17.6213 291.536 17.8986 291.248C18.176 290.96 18.3946 290.629 18.5546 290.256C18.7146 289.872 18.8373 289.467 18.9226 289.04C19.008 288.613 19.0613 288.176 19.0826 287.728C19.104 287.28 19.1146 286.848 19.1146 286.432C19.1146 286.016 19.104 285.584 19.0826 285.136C19.0613 284.688 19.008 284.251 18.9226 283.824C18.8373 283.397 18.7146 282.992 18.5546 282.608C18.3946 282.224 18.176 281.888 17.8986 281.6C17.6213 281.312 17.2693 281.083 16.8426 280.912C16.4266 280.741 15.9253 280.656 15.3386 280.656C14.752 280.656 14.2453 280.741 13.8186 280.912C13.4026 281.083 13.056 281.312 12.7786 281.6C12.5013 281.888 12.2826 282.224 12.1226 282.608C11.9626 282.992 11.84 283.397 11.7546 283.824C11.6693 284.251 11.616 284.688 11.5946 285.136C11.5733 285.584 11.5626 286.016 11.5626 286.432ZM22.8932 286.416C22.8932 286.139 22.8932 285.835 22.8932 285.504C22.9039 285.163 22.9306 284.827 22.9733 284.496C23.0266 284.155 23.0959 283.824 23.1813 283.504C23.2773 283.184 23.4106 282.907 23.5813 282.672C23.7626 282.427 23.9866 282.229 24.2533 282.08C24.5199 281.931 24.8453 281.856 25.2293 281.856C25.6133 281.856 25.9386 281.931 26.2053 282.08C26.4719 282.229 26.6906 282.427 26.8613 282.672C27.0426 282.907 27.1759 283.184 27.2613 283.504C27.3573 283.824 27.4266 284.155 27.4693 284.496C27.5226 284.827 27.5493 285.163 27.5493 285.504C27.5599 285.835 27.5653 286.139 27.5653 286.416C27.5653 286.843 27.5493 287.323 27.5173 287.856C27.4959 288.379 27.4106 288.875 27.2613 289.344C27.1226 289.803 26.8933 290.192 26.5733 290.512C26.2533 290.832 25.8053 290.992 25.2293 290.992C24.6533 290.992 24.2053 290.832 23.8853 290.512C23.5653 290.192 23.3306 289.803 23.1813 289.344C23.0426 288.875 22.9573 288.379 22.9253 287.856C22.9039 287.323 22.8932 286.843 22.8932 286.416ZM21.4533 286.432C21.4533 286.848 21.4639 287.28 21.4853 287.728C21.5066 288.176 21.5599 288.613 21.6453 289.04C21.7306 289.467 21.8533 289.872 22.0133 290.256C22.1733 290.629 22.3919 290.96 22.6693 291.248C22.9466 291.536 23.2933 291.765 23.7093 291.936C24.1359 292.096 24.6426 292.176 25.2293 292.176C25.8266 292.176 26.3333 292.096 26.7493 291.936C27.1653 291.765 27.5119 291.536 27.7893 291.248C28.0666 290.96 28.2853 290.629 28.4453 290.256C28.6053 289.872 28.7279 289.467 28.8133 289.04C28.8986 288.613 28.9519 288.176 28.9733 287.728C28.9946 287.28 29.0052 286.848 29.0052 286.432C29.0052 286.016 28.9946 285.584 28.9733 285.136C28.9519 284.688 28.8986 284.251 28.8133 283.824C28.7279 283.397 28.6053 282.992 28.4453 282.608C28.2853 282.224 28.0666 281.888 27.7893 281.6C27.5119 281.312 27.1599 281.083 26.7333 280.912C26.3173 280.741 25.8159 280.656 25.2293 280.656C24.6426 280.656 24.1359 280.741 23.7093 280.912C23.2933 281.083 22.9466 281.312 22.6693 281.6C22.3919 281.888 22.1733 282.224 22.0133 282.608C21.8533 282.992 21.7306 283.397 21.6453 283.824C21.5599 284.251 21.5066 284.688 21.4853 285.136C21.4639 285.584 21.4533 286.016 21.4533 286.432ZM32.7839 286.416C32.7839 286.139 32.7839 285.835 32.7839 285.504C32.7945 285.163 32.8212 284.827 32.8639 284.496C32.9172 284.155 32.9865 283.824 33.0719 283.504C33.1679 283.184 33.3012 282.907 33.4719 282.672C33.6532 282.427 33.8772 282.229 34.1439 282.08C34.4105 281.931 34.7359 281.856 35.1199 281.856C35.5039 281.856 35.8292 281.931 36.0959 282.08C36.3625 282.229 36.5812 282.427 36.7519 282.672C36.9332 282.907 37.0665 283.184 37.1519 283.504C37.2479 283.824 37.3172 284.155 37.3599 284.496C37.4132 284.827 37.4399 285.163 37.4399 285.504C37.4505 285.835 37.4559 286.139 37.4559 286.416C37.4559 286.843 37.4399 287.323 37.4079 287.856C37.3865 288.379 37.3012 288.875 37.1519 289.344C37.0132 289.803 36.7839 290.192 36.4639 290.512C36.1439 290.832 35.6959 290.992 35.1199 290.992C34.5439 290.992 34.0959 290.832 33.7759 290.512C33.4559 290.192 33.2212 289.803 33.0719 289.344C32.9332 288.875 32.8479 288.379 32.8159 287.856C32.7945 287.323 32.7839 286.843 32.7839 286.416ZM31.3439 286.432C31.3439 286.848 31.3545 287.28 31.3759 287.728C31.3972 288.176 31.4505 288.613 31.5359 289.04C31.6212 289.467 31.7439 289.872 31.9039 290.256C32.0639 290.629 32.2825 290.96 32.5599 291.248C32.8372 291.536 33.1839 291.765 33.5999 291.936C34.0265 292.096 34.5332 292.176 35.1199 292.176C35.7172 292.176 36.2239 292.096 36.6399 291.936C37.0559 291.765 37.4025 291.536 37.6799 291.248C37.9572 290.96 38.1759 290.629 38.3359 290.256C38.4959 289.872 38.6185 289.467 38.7039 289.04C38.7892 288.613 38.8425 288.176 38.8639 287.728C38.8852 287.28 38.8959 286.848 38.8959 286.432C38.8959 286.016 38.8852 285.584 38.8639 285.136C38.8425 284.688 38.7892 284.251 38.7039 283.824C38.6185 283.397 38.4959 282.992 38.3359 282.608C38.1759 282.224 37.9572 281.888 37.6799 281.6C37.4025 281.312 37.0505 281.083 36.6239 280.912C36.2079 280.741 35.7065 280.656 35.1199 280.656C34.5332 280.656 34.0265 280.741 33.5999 280.912C33.1839 281.083 32.8372 281.312 32.5599 281.6C32.2825 281.888 32.0639 282.224 31.9039 282.608C31.7439 282.992 31.6212 283.397 31.5359 283.824C31.4505 284.251 31.3972 284.688 31.3759 285.136C31.3545 285.584 31.3439 286.016 31.3439 286.432ZM42.6745 286.416C42.6745 286.139 42.6745 285.835 42.6745 285.504C42.6852 285.163 42.7118 284.827 42.7545 284.496C42.8078 284.155 42.8772 283.824 42.9625 283.504C43.0585 283.184 43.1918 282.907 43.3625 282.672C43.5438 282.427 43.7678 282.229 44.0345 282.08C44.3012 281.931 44.6265 281.856 45.0105 281.856C45.3945 281.856 45.7198 281.931 45.9865 282.08C46.2532 282.229 46.4718 282.427 46.6425 282.672C46.8238 282.907 46.9572 283.184 47.0425 283.504C47.1385 283.824 47.2078 284.155 47.2505 284.496C47.3038 284.827 47.3305 285.163 47.3305 285.504C47.3412 285.835 47.3465 286.139 47.3465 286.416C47.3465 286.843 47.3305 287.323 47.2985 287.856C47.2772 288.379 47.1918 288.875 47.0425 289.344C46.9038 289.803 46.6745 290.192 46.3545 290.512C46.0345 290.832 45.5865 290.992 45.0105 290.992C44.4345 290.992 43.9865 290.832 43.6665 290.512C43.3465 290.192 43.1118 289.803 42.9625 289.344C42.8238 288.875 42.7385 288.379 42.7065 287.856C42.6852 287.323 42.6745 286.843 42.6745 286.416ZM41.2345 286.432C41.2345 286.848 41.2452 287.28 41.2665 287.728C41.2878 288.176 41.3412 288.613 41.4265 289.04C41.5118 289.467 41.6345 289.872 41.7945 290.256C41.9545 290.629 42.1732 290.96 42.4505 291.248C42.7278 291.536 43.0745 291.765 43.4905 291.936C43.9172 292.096 44.4238 292.176 45.0105 292.176C45.6078 292.176 46.1145 292.096 46.5305 291.936C46.9465 291.765 47.2932 291.536 47.5705 291.248C47.8478 290.96 48.0665 290.629 48.2265 290.256C48.3865 289.872 48.5092 289.467 48.5945 289.04C48.6798 288.613 48.7332 288.176 48.7545 287.728C48.7758 287.28 48.7865 286.848 48.7865 286.432C48.7865 286.016 48.7758 285.584 48.7545 285.136C48.7332 284.688 48.6798 284.251 48.5945 283.824C48.5092 283.397 48.3865 282.992 48.2265 282.608C48.0665 282.224 47.8478 281.888 47.5705 281.6C47.2932 281.312 46.9412 281.083 46.5145 280.912C46.0985 280.741 45.5972 280.656 45.0105 280.656C44.4238 280.656 43.9172 280.741 43.4905 280.912C43.0745 281.083 42.7278 281.312 42.4505 281.6C42.1732 281.888 41.9545 282.224 41.7945 282.608C41.6345 282.992 41.5118 283.397 41.4265 283.824C41.3412 284.251 41.2878 284.688 41.2665 285.136C41.2452 285.584 41.2345 286.016 41.2345 286.432ZM64.8343 281.408C63.8743 280.736 62.9089 280.4 61.9383 280.4C60.6796 280.4 59.6503 280.832 58.8503 281.696C58.1356 282.453 57.6503 283.488 57.3943 284.8H56.5303L56.1143 285.776H57.2823C57.2716 285.851 57.2663 285.931 57.2663 286.016C57.2663 286.101 57.2663 286.192 57.2663 286.288C57.2663 286.341 57.2663 286.395 57.2663 286.448C57.2663 286.501 57.2716 286.555 57.2823 286.608H56.5463L56.1143 287.584H57.3463C57.7943 290.688 59.3249 292.24 61.9383 292.24C62.8663 292.24 63.6876 292.011 64.4023 291.552V289.872C63.9543 290.288 63.5863 290.571 63.2983 290.72C62.9036 290.923 62.4503 291.024 61.9383 291.024C60.2636 291.024 59.2503 289.877 58.8983 287.584H62.3863L62.8023 286.608H58.8183C58.8076 286.555 58.8023 286.501 58.8023 286.448C58.8023 286.395 58.8023 286.336 58.8023 286.272C58.8023 286.197 58.8023 286.117 58.8023 286.032C58.8023 285.947 58.8076 285.861 58.8183 285.776H63.0263L63.4583 284.8H58.9303C59.1116 283.915 59.4103 283.2 59.8263 282.656C60.3489 281.973 61.0103 281.632 61.8103 281.632C62.5889 281.632 63.3516 282 64.0983 282.736L64.8343 281.408Z" fill="white"/>
<path d="M6.696 159V147.656H5.656C5.58133 148.083 5.44267 148.435 5.24 148.712C5.03733 148.989 4.78667 149.208 4.488 149.368C4.2 149.528 3.87467 149.64 3.512 149.704C3.14933 149.757 2.776 149.784 2.392 149.784V150.872H5.336V159H6.696ZM11.5946 151.672H12.9546C12.944 151.331 12.976 150.995 13.0506 150.664C13.136 150.323 13.2693 150.019 13.4506 149.752C13.632 149.485 13.8613 149.272 14.1386 149.112C14.4266 148.941 14.768 148.856 15.1626 148.856C15.4613 148.856 15.744 148.904 16.0106 149C16.2773 149.096 16.5066 149.235 16.6986 149.416C16.9013 149.597 17.0613 149.816 17.1786 150.072C17.296 150.317 17.3546 150.595 17.3546 150.904C17.3546 151.299 17.2906 151.645 17.1626 151.944C17.0453 152.243 16.864 152.52 16.6186 152.776C16.384 153.032 16.0853 153.288 15.7226 153.544C15.36 153.789 14.9386 154.061 14.4586 154.36C14.064 154.595 13.6853 154.845 13.3226 155.112C12.96 155.379 12.6346 155.688 12.3466 156.04C12.0586 156.392 11.8186 156.808 11.6266 157.288C11.4453 157.757 11.328 158.328 11.2746 159H18.6826V157.8H12.8586C12.9226 157.448 13.056 157.139 13.2586 156.872C13.472 156.595 13.7226 156.339 14.0106 156.104C14.3093 155.869 14.6346 155.651 14.9866 155.448C15.3386 155.235 15.6906 155.021 16.0426 154.808C16.3946 154.584 16.736 154.349 17.0666 154.104C17.3973 153.859 17.6906 153.587 17.9466 153.288C18.2026 152.979 18.4053 152.632 18.5546 152.248C18.7146 151.864 18.7946 151.421 18.7946 150.92C18.7946 150.387 18.6986 149.917 18.5066 149.512C18.3253 149.107 18.0746 148.771 17.7546 148.504C17.4346 148.227 17.056 148.019 16.6186 147.88C16.192 147.731 15.7333 147.656 15.2426 147.656C14.6453 147.656 14.112 147.757 13.6426 147.96C13.1733 148.163 12.7786 148.445 12.4586 148.808C12.1493 149.16 11.92 149.581 11.7706 150.072C11.6213 150.563 11.5626 151.096 11.5946 151.672ZM28.3013 149.048V147.848H22.7013L21.6453 153.736L22.8133 153.8C23.0799 153.48 23.3839 153.224 23.7253 153.032C24.0773 152.829 24.4773 152.728 24.9253 152.728C25.3093 152.728 25.6559 152.792 25.9653 152.92C26.2853 153.048 26.5573 153.229 26.7813 153.464C27.0053 153.688 27.1759 153.96 27.2933 154.28C27.4213 154.589 27.4853 154.931 27.4853 155.304C27.4853 155.752 27.4213 156.147 27.2933 156.488C27.1653 156.819 26.9893 157.096 26.7653 157.32C26.5519 157.544 26.2959 157.715 25.9973 157.832C25.7093 157.939 25.4053 157.992 25.0853 157.992C24.7439 157.992 24.4293 157.944 24.1413 157.848C23.8639 157.741 23.6186 157.597 23.4053 157.416C23.2026 157.224 23.0373 157.005 22.9093 156.76C22.7919 156.504 22.7226 156.232 22.7013 155.944H21.3413C21.3519 156.456 21.4533 156.915 21.6453 157.32C21.8373 157.725 22.0986 158.067 22.4293 158.344C22.7599 158.611 23.1386 158.819 23.5653 158.968C24.0026 159.107 24.4666 159.176 24.9573 159.176C25.6186 159.176 26.1946 159.075 26.6853 158.872C27.1866 158.659 27.6026 158.376 27.9333 158.024C28.2639 157.672 28.5093 157.272 28.6693 156.824C28.8399 156.365 28.9253 155.896 28.9253 155.416C28.9253 154.765 28.8293 154.2 28.6373 153.72C28.4453 153.229 28.1839 152.824 27.8533 152.504C27.5226 152.173 27.1333 151.928 26.6853 151.768C26.2373 151.608 25.7626 151.528 25.2613 151.528C24.8773 151.528 24.4879 151.597 24.0933 151.736C23.7093 151.864 23.3946 152.067 23.1493 152.344L23.1173 152.312L23.7253 149.048H28.3013ZM32.7839 153.416C32.7839 153.139 32.7839 152.835 32.7839 152.504C32.7945 152.163 32.8212 151.827 32.8639 151.496C32.9172 151.155 32.9865 150.824 33.0719 150.504C33.1679 150.184 33.3012 149.907 33.4719 149.672C33.6532 149.427 33.8772 149.229 34.1439 149.08C34.4105 148.931 34.7359 148.856 35.1199 148.856C35.5039 148.856 35.8292 148.931 36.0959 149.08C36.3625 149.229 36.5812 149.427 36.7519 149.672C36.9332 149.907 37.0665 150.184 37.1519 150.504C37.2479 150.824 37.3172 151.155 37.3599 151.496C37.4132 151.827 37.4399 152.163 37.4399 152.504C37.4505 152.835 37.4559 153.139 37.4559 153.416C37.4559 153.843 37.4399 154.323 37.4079 154.856C37.3865 155.379 37.3012 155.875 37.1519 156.344C37.0132 156.803 36.7839 157.192 36.4639 157.512C36.1439 157.832 35.6959 157.992 35.1199 157.992C34.5439 157.992 34.0959 157.832 33.7759 157.512C33.4559 157.192 33.2212 156.803 33.0719 156.344C32.9332 155.875 32.8479 155.379 32.8159 154.856C32.7945 154.323 32.7839 153.843 32.7839 153.416ZM31.3439 153.432C31.3439 153.848 31.3545 154.28 31.3759 154.728C31.3972 155.176 31.4505 155.613 31.5359 156.04C31.6212 156.467 31.7439 156.872 31.9039 157.256C32.0639 157.629 32.2825 157.96 32.5599 158.248C32.8372 158.536 33.1839 158.765 33.5999 158.936C34.0265 159.096 34.5332 159.176 35.1199 159.176C35.7172 159.176 36.2239 159.096 36.6399 158.936C37.0559 158.765 37.4025 158.536 37.6799 158.248C37.9572 157.96 38.1759 157.629 38.3359 157.256C38.4959 156.872 38.6185 156.467 38.7039 156.04C38.7892 155.613 38.8425 155.176 38.8639 154.728C38.8852 154.28 38.8959 153.848 38.8959 153.432C38.8959 153.016 38.8852 152.584 38.8639 152.136C38.8425 151.688 38.7892 151.251 38.7039 150.824C38.6185 150.397 38.4959 149.992 38.3359 149.608C38.1759 149.224 37.9572 148.888 37.6799 148.6C37.4025 148.312 37.0505 148.083 36.6239 147.912C36.2079 147.741 35.7065 147.656 35.1199 147.656C34.5332 147.656 34.0265 147.741 33.5999 147.912C33.1839 148.083 32.8372 148.312 32.5599 148.6C32.2825 148.888 32.0639 149.224 31.9039 149.608C31.7439 149.992 31.6212 150.397 31.5359 150.824C31.4505 151.251 31.3972 151.688 31.3759 152.136C31.3545 152.584 31.3439 153.016 31.3439 153.432ZM42.6745 153.416C42.6745 153.139 42.6745 152.835 42.6745 152.504C42.6852 152.163 42.7118 151.827 42.7545 151.496C42.8078 151.155 42.8772 150.824 42.9625 150.504C43.0585 150.184 43.1918 149.907 43.3625 149.672C43.5438 149.427 43.7678 149.229 44.0345 149.08C44.3012 148.931 44.6265 148.856 45.0105 148.856C45.3945 148.856 45.7198 148.931 45.9865 149.08C46.2532 149.229 46.4718 149.427 46.6425 149.672C46.8238 149.907 46.9572 150.184 47.0425 150.504C47.1385 150.824 47.2078 151.155 47.2505 151.496C47.3038 151.827 47.3305 152.163 47.3305 152.504C47.3412 152.835 47.3465 153.139 47.3465 153.416C47.3465 153.843 47.3305 154.323 47.2985 154.856C47.2772 155.379 47.1918 155.875 47.0425 156.344C46.9038 156.803 46.6745 157.192 46.3545 157.512C46.0345 157.832 45.5865 157.992 45.0105 157.992C44.4345 157.992 43.9865 157.832 43.6665 157.512C43.3465 157.192 43.1118 156.803 42.9625 156.344C42.8238 155.875 42.7385 155.379 42.7065 154.856C42.6852 154.323 42.6745 153.843 42.6745 153.416ZM41.2345 153.432C41.2345 153.848 41.2452 154.28 41.2665 154.728C41.2878 155.176 41.3412 155.613 41.4265 156.04C41.5118 156.467 41.6345 156.872 41.7945 157.256C41.9545 157.629 42.1732 157.96 42.4505 158.248C42.7278 158.536 43.0745 158.765 43.4905 158.936C43.9172 159.096 44.4238 159.176 45.0105 159.176C45.6078 159.176 46.1145 159.096 46.5305 158.936C46.9465 158.765 47.2932 158.536 47.5705 158.248C47.8478 157.96 48.0665 157.629 48.2265 157.256C48.3865 156.872 48.5092 156.467 48.5945 156.04C48.6798 155.613 48.7332 155.176 48.7545 154.728C48.7758 154.28 48.7865 153.848 48.7865 153.432C48.7865 153.016 48.7758 152.584 48.7545 152.136C48.7332 151.688 48.6798 151.251 48.5945 150.824C48.5092 150.397 48.3865 149.992 48.2265 149.608C48.0665 149.224 47.8478 148.888 47.5705 148.6C47.2932 148.312 46.9412 148.083 46.5145 147.912C46.0985 147.741 45.5972 147.656 45.0105 147.656C44.4238 147.656 43.9172 147.741 43.4905 147.912C43.0745 148.083 42.7278 148.312 42.4505 148.6C42.1732 148.888 41.9545 149.224 41.7945 149.608C41.6345 149.992 41.5118 150.397 41.4265 150.824C41.3412 151.251 41.2878 151.688 41.2665 152.136C41.2452 152.584 41.2345 153.016 41.2345 153.432ZM64.8343 148.408C63.8743 147.736 62.9089 147.4 61.9383 147.4C60.6796 147.4 59.6503 147.832 58.8503 148.696C58.1356 149.453 57.6503 150.488 57.3943 151.8H56.5303L56.1143 152.776H57.2823C57.2716 152.851 57.2663 152.931 57.2663 153.016C57.2663 153.101 57.2663 153.192 57.2663 153.288C57.2663 153.341 57.2663 153.395 57.2663 153.448C57.2663 153.501 57.2716 153.555 57.2823 153.608H56.5463L56.1143 154.584H57.3463C57.7943 157.688 59.3249 159.24 61.9383 159.24C62.8663 159.24 63.6876 159.011 64.4023 158.552V156.872C63.9543 157.288 63.5863 157.571 63.2983 157.72C62.9036 157.923 62.4503 158.024 61.9383 158.024C60.2636 158.024 59.2503 156.877 58.8983 154.584H62.3863L62.8023 153.608H58.8183C58.8076 153.555 58.8023 153.501 58.8023 153.448C58.8023 153.395 58.8023 153.336 58.8023 153.272C58.8023 153.197 58.8023 153.117 58.8023 153.032C58.8023 152.947 58.8076 152.861 58.8183 152.776H63.0263L63.4583 151.8H58.9303C59.1116 150.915 59.4103 150.2 59.8263 149.656C60.3489 148.973 61.0103 148.632 61.8103 148.632C62.5889 148.632 63.3516 149 64.0983 149.736L64.8343 148.408Z" fill="white"/>
<line x1="1" y1="399.772" x2="522.732" y2="399.772" stroke="white"/>
<line x1="1" y1="266.682" x2="522.732" y2="266.682" stroke="white"/>
<line x1="1" y1="133.591" x2="522.732" y2="133.591" stroke="white"/>
<line x1="1" y1="0.5" x2="522.732" y2="0.5" stroke="white"/>
<line x1="88.4551" y1="1" x2="88.4551" y2="489" stroke="white"/>
<line x1="175.41" y1="1" x2="175.41" y2="489" stroke="white"/>
<line x1="262.365" y1="1" x2="262.365" y2="489" stroke="white"/>
<line x1="349.321" y1="1" x2="349.321" y2="489" stroke="white"/>
<line x1="436.276" y1="1" x2="436.276" y2="489" stroke="white"/>
<line x1="523.231" y1="1" x2="523.231" y2="489" stroke="white"/>
<path d="M1.26855 266.738L88.2238 272.062L175.179 279.16L262.134 287.146L349.09 293.8L436.045 292.469L523 318.2" stroke="#EF6A6A" stroke-width="4"/>
<path d="M1.53711 266.738L88.224 229.916L175.179 192.207L262.135 153.611L349.09 111.022L436.045 53.7927L523 34.7163" stroke="#5FCCA1" stroke-width="4"/>
</svg>
